<svg xmlns="http://www.w3.org/2000/svg" version="1.1" xmlns:xlink="http://www.w3.org/1999/xlink" xmlns:svgjs="http://svgjs.dev/svgjs" width="1177" height="560" preserveAspectRatio="none" viewBox="0 0 1177 560"><g mask="url(&quot;#SvgjsMask1307&quot;)" fill="none"><path d="M11.971,180.745C30.518,180.58,51.262,179.639,61.078,163.901C71.293,147.524,66.509,126.319,56.026,110.113C46.459,95.323,29.581,87.612,11.971,87.982C-4.971,88.338,-19.662,97.752,-28.991,111.899C-39.566,127.936,-48.499,148.28,-38.676,164.789C-28.976,181.092,-6.999,180.914,11.971,180.745" fill="rgba(107, 179, 255, 1)" class="triangle-float2"></path><path d="M71.263,524.311C107.394,523.56,126.897,486.176,144.661,454.704C161.983,424.015,180.891,389.66,165.028,358.192C148.007,324.428,109.075,309.092,71.263,309.106C33.477,309.12,-4.684,324.876,-22.385,358.259C-39.238,390.043,-25.291,426.533,-7.618,457.869C10.482,489.963,34.425,525.077,71.263,524.311" fill="rgba(107, 179, 255, 1)" class="triangle-float2"></path><path d="M1000.546,339.85C1047.335,341.549,1088.879,310.601,1111.013,269.343C1131.987,230.248,1127.485,183.504,1104.912,145.31C1082.764,107.835,1044.074,81.886,1000.546,82.43C957.87,82.963,920.965,110.354,900.6,147.861C881.172,183.641,884.356,225.68,903.156,261.794C923.746,301.346,955.984,338.231,1000.546,339.85" fill="rgba(107, 179, 255, 1)" class="triangle-float3"></path><path d="M590.005,230C630.837,228.774,660.254,194.757,679.346,158.643C696.991,125.266,702.168,85.898,683.552,53.053C664.694,19.78,628.246,1.598,590.005,1.012C550.643,0.409,511.788,16.458,491.357,50.108C470.183,84.982,471.244,128.53,490.861,164.303C511.292,201.561,547.532,231.275,590.005,230" fill="rgba(107, 179, 255, 1)" class="triangle-float2"></path><path d="M899.616,526.421C934.384,527.253,967.892,510.165,985.168,479.982C1002.34,449.98,1000.093,412.458,981.541,383.289C964.24,356.088,931.843,344.681,899.616,345.471C868.894,346.224,840.234,360.825,824.365,387.142C807.951,414.363,805.767,448.082,820.877,476.048C836.751,505.429,866.231,525.622,899.616,526.421" fill="rgba(107, 179, 255, 1)" class="triangle-float3"></path><path d="M282.394,313.421C317.749,315.16,349.149,290.543,365.18,258.983C379.855,230.093,371.283,197.268,355.876,168.761C339.439,138.348,316.911,107.742,282.394,105.803C245.197,103.713,209.167,126.016,193.07,159.615C178.573,189.876,195.751,222.464,212.602,251.48C229.345,280.309,249.096,311.784,282.394,313.421" fill="rgba(107, 179, 255, 1)" class="triangle-float1"></path><path d="M794.707,179.715C839.3,179.282,878.788,152.6,900.673,113.744C922.142,75.627,923.6,28.649,900.832,-8.706C878.906,-44.68,836.833,-59.61,794.707,-60.116C751.509,-60.635,706.911,-47.981,684.071,-11.311C660.054,27.249,662.345,76.528,685.113,115.839C707.826,155.055,749.39,180.155,794.707,179.715" fill="rgba(107, 179, 255, 1)" class="triangle-float2"></path><path d="M409.548,69.92C427.51,70.861,448.638,70.643,457.656,55.08C466.686,39.496,455.888,21.345,446.655,5.881C437.755,-9.024,426.863,-24.246,409.548,-25.492C390.32,-26.876,370.872,-17.27,361.87,-0.223C353.321,15.966,359.149,35.319,369.441,50.46C378.394,63.631,393.644,69.087,409.548,69.92" fill="rgba(107, 179, 255, 1)" class="triangle-float2"></path></g><defs><mask id="SvgjsMask1307"><rect width="1177" height="560" fill="#ffffff"></rect></mask><style>
                @keyframes float1 {
                    0%{transform: translate(0, 0)}
                    50%{transform: translate(-10px, 0)}
                    100%{transform: translate(0, 0)}
                }

                .triangle-float1 {
                    animation: float1 5s infinite;
                }

                @keyframes float2 {
                    0%{transform: translate(0, 0)}
                    50%{transform: translate(-5px, -5px)}
                    100%{transform: translate(0, 0)}
                }

                .triangle-float2 {
                    animation: float2 4s infinite;
                }

                @keyframes float3 {
                    0%{transform: translate(0, 0)}
                    50%{transform: translate(0, -10px)}
                    100%{transform: translate(0, 0)}
                }

                .triangle-float3 {
                    animation: float3 6s infinite;
                }
            </style></defs></svg>