<svg xmlns="http://www.w3.org/2000/svg" version="1.1" xmlns:xlink="http://www.w3.org/1999/xlink" xmlns:svgjs="http://svgjs.dev/svgjs" width="1440" height="560" preserveAspectRatio="none" viewBox="0 0 1440 560"><g mask="url(&quot;#SvgjsMask1042&quot;)" fill="none"><path d="M1536 560L0 560 L0 261.82Q37.28 227.1, 72 264.37Q103.49 175.86, 192 207.35Q191.1 134.45, 264 133.55Q290.19 87.74, 336 113.93Q393.31 99.25, 408 156.56Q477.02 153.59, 480 222.61Q516.14 138.75, 600 174.89Q633.43 88.32, 720 121.75Q768.66 98.41, 792 147.07Q872.02 107.09, 912 187.12Q956.61 159.73, 984 204.34Q1059.15 159.49, 1104 234.64Q1118.21 176.85, 1176 191.07Q1201.73 96.8, 1296 122.53Q1367.67 74.2, 1416 145.88Q1489.74 99.62, 1536 173.36z" fill="rgba(0, 124, 255, 1)"></path><path d="M1560 560L0 560 L0 373.17Q34.78 287.95, 120 322.72Q170.55 301.27, 192 351.83Q235.4 323.23, 264 366.63Q276.85 307.48, 336 320.32Q344.13 256.45, 408 264.58Q476.91 213.49, 528 282.4Q535.07 217.46, 600 224.53Q699.88 252.41, 672 352.29Q746.08 306.37, 792 380.45Q824.35 292.79, 912 325.14Q909.39 250.53, 984 247.93Q1011.79 203.72, 1056 231.51Q1151.01 206.52, 1176 301.54Q1246.05 299.59, 1248 369.63Q1286.81 288.44, 1368 327.24Q1413.53 300.77, 1440 346.31Q1455.13 241.44, 1560 256.57z" fill="rgba(86, 168, 255, 1)"></path><path d="M1536 560L0 560 L0 454.79Q3.35 338.14, 120 341.5Q201.22 302.72, 240 383.94Q314.86 338.8, 360 413.66Q435.63 369.29, 480 444.91Q527.13 420.04, 552 467.16Q560.63 403.79, 624 412.41Q630.41 346.82, 696 353.22Q738.1 323.32, 768 365.42Q815.48 340.9, 840 388.39Q869.98 346.37, 912 376.34Q1002.89 347.23, 1032 438.12Q1066.5 352.62, 1152 387.12Q1176.63 339.75, 1224 364.39Q1289.36 309.75, 1344 375.1Q1395.03 354.13, 1416 405.15Q1498.33 367.48, 1536 449.8z" fill="rgba(150, 201, 255, 1)"></path><path d="M1512 560L0 560 L0 456.13Q129.99 466.12, 120 596.11Q115.23 519.34, 192 514.56Q230.31 432.87, 312 471.18Q404.11 443.29, 432 535.4Q523.67 507.07, 552 598.73Q556.88 483.62, 672 488.5Q690.98 435.48, 744 454.45Q818.13 456.58, 816 530.71Q888.27 530.98, 888 603.25Q863.62 506.87, 960 482.49Q979.42 429.91, 1032 449.34Q1100.54 397.88, 1152 466.42Q1254.55 448.97, 1272 551.52Q1342.28 501.8, 1392 572.07Q1460.42 520.49, 1512 588.91z" fill="white"></path></g><defs><mask id="SvgjsMask1042"><rect width="1440" height="560" fill="#ffffff"></rect></mask></defs></svg>