<svg xmlns="http://www.w3.org/2000/svg" version="1.1" xmlns:xlink="http://www.w3.org/1999/xlink" xmlns:svgjs="http://svgjs.dev/svgjs" width="1459" height="560" preserveAspectRatio="none" viewBox="0 0 1459 560"><g mask="url(&quot;#SvgjsMask1110&quot;)" fill="none"><path d="M767 329L908 188" stroke-width="10" stroke="url(&quot;#SvgjsLinearGradient1111&quot;)" stroke-linecap="round" class="BottomLeft"></path><path d="M903 109L519 493" stroke-width="6" stroke="url(&quot;#SvgjsLinearGradient1112&quot;)" stroke-linecap="round" class="BottomLeft"></path><path d="M945 469L535 879" stroke-width="6" stroke="url(&quot;#SvgjsLinearGradient1113&quot;)" stroke-linecap="round" class="TopRight"></path><path d="M750 352L1107 -5" stroke-width="10" stroke="url(&quot;#SvgjsLinearGradient1111&quot;)" stroke-linecap="round" class="BottomLeft"></path><path d="M756 228L979 5" stroke-width="8" stroke="url(&quot;#SvgjsLinearGradient1114&quot;)" stroke-linecap="round" class="TopRight"></path><path d="M1047 42L1228 -139" stroke-width="10" stroke="url(&quot;#SvgjsLinearGradient1113&quot;)" stroke-linecap="round" class="TopRight"></path><path d="M1027 95L693 429" stroke-width="6" stroke="url(&quot;#SvgjsLinearGradient1114&quot;)" stroke-linecap="round" class="TopRight"></path><path d="M72 210L278 4" stroke-width="8" stroke="url(&quot;#SvgjsLinearGradient1113&quot;)" stroke-linecap="round" class="TopRight"></path><path d="M306 150L-92 548" stroke-width="6" stroke="url(&quot;#SvgjsLinearGradient1113&quot;)" stroke-linecap="round" class="TopRight"></path><path d="M718 87L971 -166" stroke-width="6" stroke="url(&quot;#SvgjsLinearGradient1113&quot;)" stroke-linecap="round" class="TopRight"></path><path d="M51 341L-271 663" stroke-width="6" stroke="url(&quot;#SvgjsLinearGradient1114&quot;)" stroke-linecap="round" class="TopRight"></path><path d="M292 493L43 742" stroke-width="6" stroke="url(&quot;#SvgjsLinearGradient1112&quot;)" stroke-linecap="round" class="BottomLeft"></path><path d="M581 401L325 657" stroke-width="10" stroke="url(&quot;#SvgjsLinearGradient1111&quot;)" stroke-linecap="round" class="BottomLeft"></path><path d="M750 309L598 461" stroke-width="6" stroke="url(&quot;#SvgjsLinearGradient1113&quot;)" stroke-linecap="round" class="TopRight"></path><path d="M37 559L-265 861" stroke-width="8" stroke="url(&quot;#SvgjsLinearGradient1113&quot;)" stroke-linecap="round" class="TopRight"></path><path d="M911 489L595 805" stroke-width="10" stroke="url(&quot;#SvgjsLinearGradient1113&quot;)" stroke-linecap="round" class="TopRight"></path><path d="M253 541L-67 861" stroke-width="8" stroke="url(&quot;#SvgjsLinearGradient1111&quot;)" stroke-linecap="round" class="BottomLeft"></path><path d="M16 430L409 37" stroke-width="6" stroke="url(&quot;#SvgjsLinearGradient1113&quot;)" stroke-linecap="round" class="TopRight"></path><path d="M1213 227L816 624" stroke-width="6" stroke="url(&quot;#SvgjsLinearGradient1114&quot;)" stroke-linecap="round" class="TopRight"></path><path d="M508 559L271 796" stroke-width="8" stroke="url(&quot;#SvgjsLinearGradient1111&quot;)" stroke-linecap="round" class="BottomLeft"></path><path d="M1257 521L1501 277" stroke-width="8" stroke="url(&quot;#SvgjsLinearGradient1111&quot;)" stroke-linecap="round" class="BottomLeft"></path><path d="M253 237L-158 648" stroke-width="8" stroke="url(&quot;#SvgjsLinearGradient1113&quot;)" stroke-linecap="round" class="TopRight"></path><path d="M204 480L623 61" stroke-width="6" stroke="url(&quot;#SvgjsLinearGradient1112&quot;)" stroke-linecap="round" class="BottomLeft"></path><path d="M9 410L-354 773" stroke-width="8" stroke="url(&quot;#SvgjsLinearGradient1112&quot;)" stroke-linecap="round" class="BottomLeft"></path><path d="M746 440L1158 28" stroke-width="8" stroke="url(&quot;#SvgjsLinearGradient1111&quot;)" stroke-linecap="round" class="BottomLeft"></path><path d="M793 59L535 317" stroke-width="8" stroke="url(&quot;#SvgjsLinearGradient1113&quot;)" stroke-linecap="round" class="TopRight"></path><path d="M99 277L377 -1" stroke-width="10" stroke="url(&quot;#SvgjsLinearGradient1111&quot;)" stroke-linecap="round" class="BottomLeft"></path><path d="M42 527L-123 692" stroke-width="6" stroke="url(&quot;#SvgjsLinearGradient1114&quot;)" stroke-linecap="round" class="TopRight"></path><path d="M185 376L336 225" stroke-width="10" stroke="url(&quot;#SvgjsLinearGradient1111&quot;)" stroke-linecap="round" class="BottomLeft"></path><path d="M650 26L1037 -361" stroke-width="8" stroke="url(&quot;#SvgjsLinearGradient1112&quot;)" stroke-linecap="round" class="BottomLeft"></path><path d="M27 246L247 26" stroke-width="10" stroke="url(&quot;#SvgjsLinearGradient1112&quot;)" stroke-linecap="round" class="BottomLeft"></path><path d="M1109 486L878 717" stroke-width="6" stroke="url(&quot;#SvgjsLinearGradient1111&quot;)" stroke-linecap="round" class="BottomLeft"></path><path d="M614 438L316 736" stroke-width="6" stroke="url(&quot;#SvgjsLinearGradient1114&quot;)" stroke-linecap="round" class="TopRight"></path><path d="M1040 106L807 339" stroke-width="8" stroke="url(&quot;#SvgjsLinearGradient1111&quot;)" stroke-linecap="round" class="BottomLeft"></path><path d="M810 195L662 343" stroke-width="8" stroke="url(&quot;#SvgjsLinearGradient1113&quot;)" stroke-linecap="round" class="TopRight"></path><path d="M523 295L373 445" stroke-width="8" stroke="url(&quot;#SvgjsLinearGradient1111&quot;)" stroke-linecap="round" class="BottomLeft"></path><path d="M1031 551L726 856" stroke-width="8" stroke="url(&quot;#SvgjsLinearGradient1114&quot;)" stroke-linecap="round" class="TopRight"></path><path d="M833 130L493 470" stroke-width="6" stroke="url(&quot;#SvgjsLinearGradient1114&quot;)" stroke-linecap="round" class="TopRight"></path><path d="M893 415L723 585" stroke-width="6" stroke="url(&quot;#SvgjsLinearGradient1113&quot;)" stroke-linecap="round" class="TopRight"></path><path d="M1129 68L833 364" stroke-width="10" stroke="url(&quot;#SvgjsLinearGradient1112&quot;)" stroke-linecap="round" class="BottomLeft"></path></g><defs><mask id="SvgjsMask1110"><rect width="1459" height="560" fill="#ffffff"></rect></mask><linearGradient x1="100%" y1="0%" x2="0%" y2="100%" id="SvgjsLinearGradient1111"><stop stop-color="rgba(150, 201, 255, 0)" offset="0"></stop><stop stop-color="rgba(150, 201, 255, 1)" offset="1"></stop></linearGradient><linearGradient x1="100%" y1="0%" x2="0%" y2="100%" id="SvgjsLinearGradient1112"><stop stop-color="rgba(28, 138, 255, 0)" offset="0"></stop><stop stop-color="rgba(28, 138, 255, 1)" offset="1"></stop></linearGradient><linearGradient x1="0%" y1="100%" x2="100%" y2="0%" id="SvgjsLinearGradient1113"><stop stop-color="rgba(150, 201, 255, 0)" offset="0"></stop><stop stop-color="rgba(150, 201, 255, 1)" offset="1"></stop></linearGradient><linearGradient x1="0%" y1="100%" x2="100%" y2="0%" id="SvgjsLinearGradient1114"><stop stop-color="rgba(28, 138, 255, 0)" offset="0"></stop><stop stop-color="rgba(28, 138, 255, 1)" offset="1"></stop></linearGradient></defs></svg>