<svg xmlns="http://www.w3.org/2000/svg" version="1.1" xmlns:xlink="http://www.w3.org/1999/xlink" xmlns:svgjs="http://svgjs.dev/svgjs" width="1440" height="619" preserveAspectRatio="none" viewBox="0 0 1440 619"><g mask="url(&quot;#SvgjsMask1128&quot;)" fill="none"><g transform="translate(0, 0)" stroke-linecap="round" stroke="url(&quot;#SvgjsLinearGradient1129&quot;)"><path d="M18 170.34 L18 448.65" stroke-width="20.25"></path><path d="M45 50.78 L45 568.22" stroke-width="20.25"></path><path d="M72 242.38 L72 376.62" stroke-width="20.25"></path><path d="M99 190.03 L99 428.97" stroke-width="20.25"></path><path d="M126 64.96 L126 554.04" stroke-width="20.25"></path><path d="M153 76.2 L153 542.8" stroke-width="20.25"></path><path d="M180 221.7 L180 397.3" stroke-width="20.25"></path><path d="M207 170.51 L207 448.49" stroke-width="20.25"></path><path d="M234 178.12 L234 440.88" stroke-width="20.25"></path><path d="M261 234.11 L261 384.89" stroke-width="20.25"></path><path d="M288 177.78 L288 441.23" stroke-width="20.25"></path><path d="M315 120.66 L315 498.34" stroke-width="20.25"></path><path d="M342 197.54 L342 421.46" stroke-width="20.25"></path><path d="M369 101.23 L369 517.77" stroke-width="20.25"></path><path d="M396 115.59 L396 503.41" stroke-width="20.25"></path><path d="M423 108.21 L423 510.79" stroke-width="20.25"></path><path d="M450 135.71 L450 483.29" stroke-width="20.25"></path><path d="M477 29.89 L477 589.11" stroke-width="20.25"></path><path d="M504 183.64 L504 435.36" stroke-width="20.25"></path><path d="M531 155.75 L531 463.25" stroke-width="20.25"></path><path d="M558 177.6 L558 441.39" stroke-width="20.25"></path><path d="M585 223.61 L585 395.39" stroke-width="20.25"></path><path d="M612 185.02 L612 433.98" stroke-width="20.25"></path><path d="M639 34.64 L639 584.36" stroke-width="20.25"></path><path d="M666 86.56 L666 532.44" stroke-width="20.25"></path><path d="M693 172.88 L693 446.13" stroke-width="20.25"></path><path d="M720 200.03 L720 418.97" stroke-width="20.25"></path><path d="M747 187.09 L747 431.91" stroke-width="20.25"></path><path d="M774 54.04 L774 564.96" stroke-width="20.25"></path><path d="M801 54.68 L801 564.33" stroke-width="20.25"></path><path d="M828 93.34 L828 525.65" stroke-width="20.25"></path><path d="M855 50.8 L855 568.2" stroke-width="20.25"></path><path d="M882 108.18 L882 510.82" stroke-width="20.25"></path><path d="M909 62.43 L909 556.57" stroke-width="20.25"></path><path d="M936 153.16 L936 465.84" stroke-width="20.25"></path><path d="M963 271.05 L963 347.95" stroke-width="20.25"></path><path d="M990 166.69 L990 452.31" stroke-width="20.25"></path><path d="M1017 138.61 L1017 480.39" stroke-width="20.25"></path><path d="M1044 77.87 L1044 541.13" stroke-width="20.25"></path><path d="M1071 55.97 L1071 563.03" stroke-width="20.25"></path><path d="M1098 237.38 L1098 381.62" stroke-width="20.25"></path><path d="M1125 186.74 L1125 432.26" stroke-width="20.25"></path><path d="M1152 19.71 L1152 599.29" stroke-width="20.25"></path><path d="M1179 17.82 L1179 601.17" stroke-width="20.25"></path><path d="M1206 222.69 L1206 396.31" stroke-width="20.25"></path><path d="M1233 258 L1233 361" stroke-width="20.25"></path><path d="M1260 181.34 L1260 437.66" stroke-width="20.25"></path><path d="M1287 46.31 L1287 572.69" stroke-width="20.25"></path><path d="M1314 126.25 L1314 492.75" stroke-width="20.25"></path><path d="M1341 154.61 L1341 464.39" stroke-width="20.25"></path><path d="M1368 33.27 L1368 585.73" stroke-width="20.25"></path><path d="M1395 271.82 L1395 347.18" stroke-width="20.25"></path><path d="M1422 116.72 L1422 502.28" stroke-width="20.25"></path></g></g><defs><mask id="SvgjsMask1128"><rect width="1440" height="619" fill="#ffffff"></rect></mask><linearGradient x1="0" y1="309.5" x2="1440" y2="309.5" gradientUnits="userSpaceOnUse" id="SvgjsLinearGradient1129"><stop stop-color="rgba(58, 124, 195, 1)" offset="0.11"></stop><stop stop-color="rgba(221, 17, 51, 1)" offset="1"></stop></linearGradient></defs></svg>